<?xml version="1.0" encoding="iso-8859-1"?>
<!-- Generator: Adobe Illustrator 19.0.0, SVG Export Plug-In . SVG Version: 6.00 Build 0)  -->
<svg version="1.1" id="Layer_1" xmlns="http://www.w3.org/2000/svg" xmlns:xlink="http://www.w3.org/1999/xlink" x="0px" y="0px"
	 viewBox="0 0 484.6 484.6" style="enable-background:new 0 0 484.6 484.6;" xml:space="preserve" fill="#00f">
<g>
	<g>
		<path d="M478.6,1.3H6c-3.3,0-6,2.7-6,6s2.7,6,6,6h22.4V308c0,12.4,10.1,22.5,22.5,22.5h384.6c12.4-0.1,22.5-10.2,22.5-22.6V13.3
			h20.6c3.3,0,6-2.7,6-6S481.9,1.3,478.6,1.3z M446,308c0,5.8-4.7,10.5-10.5,10.5H50.9c-5.8-0.1-10.5-4.8-10.5-10.6V13.3H446V308z"
			/>
	</g>
</g>
<g>
	<g>
		<path d="M325,472.7l-71.1-71.1v-31.5h38.6c3.3,0,6-2.7,6-6s-2.7-6-6-6h-90.7c-3.3,0-6,2.7-6,6s2.7,6,6,6h40v31.5L170.4,473
			c-2.3,2.3-2.3,6.1,0,8.5c1.2,1.2,2.7,1.8,4.2,1.8s3.1-0.6,4.2-1.8l62.9-62.9v58.7c0.3,3.4,3,6,6.3,6s6-2.7,6-6v-58.7l62.6,62.6
			c1.2,1.2,2.7,1.8,4.2,1.8s3.1-0.6,4.2-1.8C327.3,478.9,327.3,475.1,325,472.7z"/>
	</g>
</g>
<g>
	<g>
		<path d="M341.4,81.4c-15.6-17.6-38-27.7-61.5-27.7c-3.3,0-6,2.7-6,6v76c0,3.3,2.7,6,6,6h76c3.3,0,6-2.7,6-6
			C361.9,115.7,354.6,96.4,341.4,81.4z M285.9,129.7V66c17.8,1.5,34.5,9.9,46.5,23.4c10,11.3,16,25.4,17.3,40.3H285.9z"/>
	</g>
</g>
<g>
	<g>
		<path d="M333.8,171.2H243V80.4c0-3.3-2.7-6-6-6c-56.7,0-102.8,46.1-102.8,102.8c0,56.7,46.1,102.8,102.8,102.8
			s102.8-46.1,102.8-102.8C339.8,173.9,337.1,171.2,333.8,171.2z M237,268c-50.1,0-90.8-40.7-90.8-90.8c0-48,37.5-87.5,84.8-90.6
			v90.6c0,3.3,2.7,6,6,6h90.6C324.5,230.5,285.1,268,237,268z"/>
	</g>
</g>
<g>
</g>
<g>
</g>
<g>
</g>
<g>
</g>
<g>
</g>
<g>
</g>
<g>
</g>
<g>
</g>
<g>
</g>
<g>
</g>
<g>
</g>
<g>
</g>
<g>
</g>
<g>
</g>
<g>
</g>
</svg>
