<?xml version="1.0" encoding="iso-8859-1"?>
<!-- Generator: Adobe Illustrator 19.0.0, SVG Export Plug-In . SVG Version: 6.00 Build 0)  -->
<svg version="1.1" id="Layer_1" xmlns="http://www.w3.org/2000/svg" xmlns:xlink="http://www.w3.org/1999/xlink" x="0px" y="0px"
	 viewBox="0 0 490.609 490.609" style="enable-background:new 0 0 490.609 490.609;" xml:space="preserve" fill="#00f">
<g>
	<g>
		<path d="M331.4,182.855c-20.4-16.8-42.4-28.6-50.5-32.8v-29.5c4.6-4.2,7.3-10.2,7.3-16.6v-36.3c0-21.4-17.4-38.8-38.8-38.8h-7.8
			c-21.4,0-38.8,17.4-38.8,38.8v36.4c0,6.4,2.7,12.3,7.3,16.6v29.5c-8.1,4.1-30.1,16-50.5,32.8c-5.5,4.5-8.6,11.1-8.6,18.3v24.9
			c0,3.3,2.7,6,6,6s6-2.7,6-6v-24.9c0-3.5,1.5-6.8,4.2-9c22.1-18.2,46-30.2,50.6-32.5c2.6-1.3,4.3-4,4.3-6.8v-35.1c0-2-1-3.9-2.7-5
			c-2.9-1.9-4.7-5.2-4.7-8.7v-36.5c0-14.8,12-26.8,26.8-26.8h7.8c14.8,0,26.8,12,26.8,26.8v36.4c0,3.5-1.7,6.7-4.7,8.7
			c-1.7,1.1-2.7,3-2.7,5v35.1c0,2.9,1.6,5.6,4.3,6.8c4.6,2.2,28.5,14.3,50.6,32.5c2.7,2.2,4.2,5.5,4.2,9v24.9c0.2,3.3,2.9,6,6.2,6
			s6-2.7,6-6v-24.9C340,194.055,336.9,187.355,331.4,182.855z"/>
	</g>
</g>
<g>
	<g>
		<path d="M482.2,412.455c-20.4-16.8-42.4-28.6-50.5-32.8v-29.4c4.6-4.2,7.3-10.2,7.3-16.6v-36.4c0-21.4-17.4-38.8-38.8-38.8h-7.8
			c-21.4,0-38.8,17.4-38.8,38.8v36.4c0,6.4,2.7,12.3,7.3,16.6v29.5c-8.1,4.1-30.1,16-50.5,32.8c-5.5,4.5-8.6,11.1-8.6,18.3v24.9
			c0,3.3,2.7,6,6,6s6-2.7,6-6v-24.9c0-3.5,1.5-6.8,4.2-9c22.1-18.1,46-30.2,50.6-32.5c2.6-1.3,4.3-3.9,4.3-6.8v-35.3
			c0-2-1-3.9-2.7-5c-2.9-1.9-4.7-5.2-4.7-8.7v-36.3c0-14.8,12-26.8,26.8-26.8h7.8c14.8,0,26.8,12,26.8,26.8v36.4
			c0,3.5-1.7,6.7-4.7,8.7c-1.7,1.1-2.7,3-2.7,5v35.1c0,2.9,1.7,5.6,4.3,6.8c4.6,2.2,28.5,14.3,50.6,32.5c2.7,2.2,4.2,5.5,4.2,9v24.9
			c0,3.3,2.7,6,6,6s6-2.7,6-6v-24.9C490.8,423.555,487.7,416.955,482.2,412.455z"/>
	</g>
</g>
<g>
	<g>
		<path d="M180.4,412.455c-20.4-16.8-42.4-28.6-50.5-32.8v-29.4c4.6-4.2,7.3-10.2,7.3-16.6v-36.4c0-21.4-17.4-38.8-38.8-38.8h-7.8
			c-21.4,0-38.8,17.4-38.8,38.8v36.4c0,6.4,2.7,12.3,7.3,16.6v29.5c-8.1,4.1-30.1,16-50.5,32.8c-5.5,4.5-8.6,11.1-8.6,18.3v24.9
			c0.2,3.2,2.9,5.9,6.2,5.9s6-2.7,6-6v-24.9c0-3.5,1.5-6.8,4.2-9c22.1-18.2,46.1-30.3,50.6-32.5c2.6-1.3,4.3-4,4.3-6.8v-35.2
			c0-2-1-3.9-2.7-5c-2.9-1.9-4.7-5.2-4.7-8.7v-36.3c0-14.8,12-26.8,26.8-26.8h7.8c14.8,0,26.8,12,26.8,26.8v36.4
			c0,3.5-1.7,6.7-4.7,8.7c-1.7,1.1-2.7,3-2.7,5v35.1c0,2.9,1.6,5.6,4.3,6.8c4.6,2.2,28.5,14.3,50.6,32.5c2.7,2.2,4.2,5.5,4.2,9v24.9
			c0,3.3,2.7,6,6,6c3.3,0,6-2.7,6-6v-24.9C189,423.655,185.9,416.955,180.4,412.455z"/>
	</g>
</g>
<g>
	<g>
		<path d="M256.7,292.355h-22.3c-10.2,0-18.5-8.3-18.5-18.5s8.3-18.5,18.5-18.5h39.4c3.3,0,6-2.7,6-6s-2.7-6-6-6h-22.3v-17.4
			c0-3.3-2.7-6-6-6s-6,2.7-6,6v17.4h-5.2c-16.8,0-30.5,13.7-30.5,30.5s13.7,30.5,30.5,30.5h22.3c10.2,0,18.5,8.3,18.5,18.5
			s-8.3,18.5-18.5,18.5h-40.1c-3.3,0-6,2.7-6,6s2.7,6,6,6h23v17.7c0,3.3,2.7,6,6,6s6-2.7,6-6v-17.7h5.2c16.8,0,30.5-13.7,30.5-30.5
			S273.5,292.355,256.7,292.355z"/>
	</g>
</g>
<g>
</g>
<g>
</g>
<g>
</g>
<g>
</g>
<g>
</g>
<g>
</g>
<g>
</g>
<g>
</g>
<g>
</g>
<g>
</g>
<g>
</g>
<g>
</g>
<g>
</g>
<g>
</g>
<g>
</g>
</svg>
